<svg xmlns="http://www.w3.org/2000/svg" width="1589" height="462" viewBox="0 0 1589 462" version="1.1">
	<path d="M 195.500 17.105 C 148.738 22.800, 106.005 41.870, 71.949 72.242 C 32.944 107.027, 8.950 152.521, 2.541 203.842 C -5.208 265.893, 17.135 329.238, 62.938 375.068 C 87.982 400.128, 118.071 418.352, 152.500 429.312 C 173.958 436.142, 189.287 438.714, 213.983 439.624 C 243.524 440.713, 267.415 437.399, 294.377 428.472 C 359.981 406.750, 411.361 356.284, 432.448 292.857 C 440.178 269.608, 441.290 262.325, 441.758 231.890 C 442.117 208.481, 441.922 203.851, 440.133 193.390 C 426.892 115.969, 370.060 51.796, 292.500 26.685 C 268.642 18.961, 248.213 15.941, 221.064 16.126 C 210.854 16.196, 199.350 16.637, 195.500 17.105 M 488.500 22.155 C 484.244 24.482, 484 25.676, 484 44.144 C 484 55.067, 484.429 62.847, 485.114 64.351 C 486.620 67.656, 489.022 68, 510.625 68 L 529 68 529.006 128.750 C 529.009 166.063, 529.396 190.885, 530.009 193.091 C 531.549 198.637, 533.296 199, 558.436 199 C 578.943 199, 580.972 198.843, 583.139 197.089 L 585.500 195.177 586 131.839 L 586.500 68.500 607.217 68 C 625.348 67.562, 628.156 67.277, 629.717 65.716 C 631.255 64.178, 631.547 61.635, 631.840 47.238 C 632.221 28.544, 631.422 23.969, 627.462 22.165 C 623.951 20.565, 491.424 20.555, 488.500 22.155 M 640.854 22.128 C 639.399 22.661, 637.942 24.088, 637.618 25.299 C 636.754 28.519, 636.898 194.301, 637.765 195.600 C 639.720 198.527, 643.351 199, 663.887 199 C 686.229 199, 688.984 198.525, 690.890 194.343 C 691.620 192.739, 692 182.176, 692 163.453 L 692 135 713 135 L 734 135 734.006 162.250 C 734.009 177.285, 734.458 191.110, 735.009 193.091 C 736.537 198.591, 738.403 199, 762 199 C 785.597 199, 787.463 198.591, 788.991 193.091 C 790.363 188.152, 790.345 31.784, 788.972 26.840 C 787.502 21.547, 784.975 21, 762 21 C 739.025 21, 736.498 21.547, 735.028 26.840 C 734.456 28.898, 734.009 42.212, 734.006 57.250 L 734 84 713 84 L 692 84 692 56.047 C 692 37.284, 691.626 27.273, 690.862 25.597 C 690.236 24.223, 688.369 22.627, 686.713 22.050 C 682.928 20.730, 644.489 20.796, 640.854 22.128 M 809.028 22.101 C 807.669 22.650, 806.213 23.640, 805.794 24.300 C 804.815 25.840, 804.787 194.135, 805.765 195.600 C 807.933 198.846, 810.856 199, 870.387 199 C 932.147 199, 934.273 198.865, 935.546 194.855 C 936.361 192.287, 936.425 159.915, 935.620 157.379 C 934.323 153.292, 931.582 153, 894.453 153 L 859 153 859 142.047 L 859 131.093 885.397 130.797 C 909.713 130.523, 911.959 130.350, 913.897 128.595 C 915.883 126.796, 916 125.709, 916 109 C 916 92.291, 915.883 91.204, 913.897 89.405 C 911.959 87.650, 909.713 87.477, 885.397 87.203 L 859 86.907 859 76.953 L 859 67 895.311 67 C 930.472 67, 931.692 66.935, 933.811 64.961 C 935.015 63.840, 936.016 61.702, 936.036 60.211 C 936.424 31.120, 936.127 25.682, 934.035 23.590 C 931.966 21.521, 931.347 21.498, 871.723 21.301 C 833.482 21.175, 810.598 21.467, 809.028 22.101 M 986.894 22.114 C 985.461 22.640, 983.774 24.201, 983.144 25.582 C 981.544 29.094, 981.512 190.834, 983.110 194.343 C 983.721 195.683, 985.317 197.279, 986.657 197.890 C 990.505 199.643, 1078.824 199.334, 1091 197.525 C 1114.094 194.094, 1127.330 183.661, 1132.760 164.607 C 1134.304 159.186, 1134.500 153.105, 1134.500 110.500 C 1134.500 58.247, 1134.371 56.789, 1128.764 45.583 C 1125.336 38.734, 1119.794 33.295, 1112 29.132 C 1098.567 21.957, 1089.622 21.024, 1035 21.097 C 1008.707 21.132, 988.400 21.562, 986.894 22.114 M 1147.309 22.466 C 1143.121 24.288, 1142.785 26.344, 1143.181 47.725 C 1143.411 60.119, 1143.862 65.267, 1144.798 66.203 C 1145.713 67.116, 1150.520 67.601, 1161.048 67.842 L 1176 68.183 1176 110.592 L 1176 153 1161.500 153 C 1141.931 153, 1143 151.793, 1143 173.875 C 1143 194.848, 1143.304 196.562, 1147.263 197.942 C 1149.254 198.636, 1169.017 199, 1204.715 199 C 1259.067 199, 1262.080 198.828, 1264.235 195.600 C 1264.639 194.995, 1264.976 186.063, 1264.985 175.750 C 1265.004 151.498, 1266.226 153, 1246.489 153 L 1231.978 153 1232.239 110.750 L 1232.500 68.500 1247.209 68 C 1260.418 67.551, 1262.072 67.296, 1263.427 65.500 C 1264.648 63.882, 1264.940 59.871, 1264.953 44.500 C 1264.962 34.050, 1264.639 25.005, 1264.235 24.400 C 1262.077 21.169, 1259.091 21, 1204.816 21.039 C 1160.753 21.071, 1149.898 21.340, 1147.309 22.466 M 1280.823 22.274 C 1279.350 22.857, 1277.894 24.272, 1277.587 25.417 C 1276.848 28.167, 1276.860 191.876, 1277.598 194.628 C 1278.621 198.440, 1282.006 199, 1304 199 C 1326.890 199, 1329.270 198.533, 1330.950 193.713 C 1331.574 191.923, 1332 180.624, 1332 165.851 L 1332 141 1350.750 141.014 C 1361.063 141.021, 1370.434 141.278, 1371.576 141.585 C 1372.719 141.892, 1374.406 143.417, 1375.326 144.976 C 1376.751 147.387, 1377 151, 1377 169.279 C 1377 194.105, 1377.287 196.354, 1380.649 197.886 C 1382.209 198.597, 1391.057 199, 1405.093 199 L 1427.091 199 1429.595 196.495 L 1432.100 193.991 1431.800 160.745 L 1431.500 127.500 1428.608 121.238 C 1426.977 117.705, 1423.987 113.414, 1421.748 111.391 C 1417.650 107.689, 1408.784 103.027, 1405.809 103.010 C 1402.679 102.992, 1402.996 101.241, 1406.631 98.468 C 1408.764 96.841, 1411.306 93.420, 1412.842 90.107 C 1415.189 85.047, 1415.480 83.068, 1415.828 69.830 C 1416.142 57.883, 1415.893 54.171, 1414.485 49.830 C 1408.758 32.176, 1399.660 24.921, 1379.709 22.101 C 1369.403 20.644, 1284.560 20.793, 1280.823 22.274 M 1435.367 22.078 C 1433.409 22.652, 1432.008 23.841, 1431.631 25.248 C 1431.299 26.487, 1431.035 35.600, 1431.045 45.500 C 1431.060 59.980, 1431.359 63.891, 1432.573 65.500 C 1433.984 67.370, 1435.447 67.520, 1455.020 67.806 L 1475.957 68.112 1476.228 131.645 L 1476.500 195.177 1478.861 197.089 C 1481.027 198.842, 1483.056 199, 1503.462 199 C 1527.052 199, 1531.404 198.351, 1532.386 194.687 C 1532.709 193.484, 1532.979 164.488, 1532.986 130.250 L 1533 68 1552.435 68 C 1572.476 68, 1576.191 67.455, 1577.480 64.327 C 1577.894 63.322, 1578.161 54.175, 1578.075 44 C 1577.930 27, 1577.756 25.338, 1575.931 23.500 C 1573.988 21.543, 1572.500 21.496, 1506.223 21.330 C 1467.457 21.232, 1437.160 21.552, 1435.367 22.078 M 191.527 40.588 C 170.026 43.929, 152.449 49.620, 131.500 60.024 C 80.008 85.595, 43.475 130.476, 30.174 184.500 C 25.999 201.459, 25.499 206.158, 25.548 228 C 25.599 250.834, 26.503 258.198, 31.524 276.665 C 45.137 326.728, 82.706 371.938, 130.500 395.769 C 159.892 410.424, 187.969 416.924, 222 416.950 C 246.984 416.969, 264.611 414.227, 286.500 406.916 C 342.835 388.100, 387.688 345.690, 407.506 292.500 C 415.510 271.016, 418.953 251.807, 418.982 228.474 C 419.009 205.818, 416.783 191.477, 409.904 170 C 406.241 158.563, 395.942 137.208, 389.315 127.308 C 357.726 80.123, 307.119 48.330, 251.077 40.463 C 237.774 38.596, 203.891 38.667, 191.527 40.588 M 1332 81.623 L 1332 98.247 1343.750 97.762 C 1357.173 97.209, 1358.524 96.820, 1360.537 92.928 C 1362.576 88.986, 1362.520 73.907, 1360.452 69.907 C 1358.315 65.774, 1355.552 65, 1342.935 65 L 1332 65 1332 81.623 M 1037.746 67.588 C 1037.335 67.998, 1037 87.383, 1037 110.667 L 1037 153 1054.453 153 C 1065.822 153, 1072.817 152.585, 1074.519 151.809 C 1079.621 149.485, 1080 146.663, 1079.994 111.128 C 1079.991 91.544, 1079.571 76.997, 1078.945 74.741 C 1077.142 68.247, 1074.973 67.546, 1055.543 67.171 C 1046.164 66.990, 1038.156 67.178, 1037.746 67.588 M 131.071 102.892 C 129.860 103.695, 122.791 117.145, 123.319 117.642 C 123.565 117.872, 224.127 161.795, 241 169.041 C 248.425 172.229, 258.775 176.714, 264 179.006 C 269.225 181.299, 278 185.103, 283.500 187.461 C 289 189.818, 312.719 200.129, 336.210 210.374 C 359.700 220.618, 379.387 229, 379.960 229 C 380.532 229, 381 228.562, 381 228.027 C 381 227.492, 382.161 224.603, 383.580 221.606 C 387.343 213.659, 386.794 212.174, 378.500 207.856 C 374.650 205.852, 370.534 203.943, 369.354 203.613 C 368.174 203.284, 363.899 201.492, 359.854 199.631 C 348.906 194.593, 329.209 186, 328.612 186 C 328.325 186, 325.257 184.677, 321.795 183.059 C 315.120 179.942, 290.415 169.207, 255 154.036 C 243.175 148.971, 232.691 144.399, 231.702 143.875 C 230.714 143.352, 212.264 135.274, 190.702 125.925 C 143.632 105.514, 148.470 107.624, 142.976 105.110 C 137.249 102.490, 132.901 101.680, 131.071 102.892 M 149.187 139.238 C 149.497 142.431, 149.713 142.552, 174 153.190 C 187.475 159.092, 198.818 164.052, 199.206 164.211 C 199.875 164.485, 201.667 171.019, 210.896 206.843 L 214.848 222.185 207.991 236.343 C 204.219 244.129, 199.356 253.650, 197.183 257.500 C 169.238 307.007, 157.683 328.203, 156.752 331.663 C 154.515 339.973, 159.968 349.438, 168.708 352.416 C 174.186 354.283, 175.270 354.331, 180.321 352.928 C 185.737 351.424, 191.193 346.086, 193.709 339.830 C 194.888 336.898, 200.652 322.125, 206.518 307 C 224.861 259.705, 226.042 256.801, 232.004 244.292 L 237.823 232.084 265.213 218.400 L 292.603 204.715 316.956 215.358 C 330.350 221.211, 342.310 226, 343.532 226 C 345.507 226, 348.901 223.403, 347.893 222.664 C 347.677 222.506, 331.075 215.237, 311 206.510 C 290.925 197.784, 265.500 186.729, 254.500 181.944 C 238.790 175.110, 183.359 151.008, 153.187 137.892 L 148.875 136.017 149.187 139.238 M 498 260 C 496.032 261.968, 496 263.333, 496 346.461 L 496 430.922 498.189 432.961 C 500.260 434.891, 501.612 435, 523.534 435 C 545.799 435, 546.763 434.919, 548.595 432.897 C 550.364 430.943, 550.521 428.661, 550.792 400.897 L 551.084 371 571.935 371 C 590.870 371, 592.848 371.161, 593.460 372.750 C 593.831 373.712, 594.069 386.200, 593.988 400.500 C 593.804 433.155, 593.649 430.649, 596 433 C 597.883 434.883, 599.333 435, 620.889 435 C 641.936 435, 643.968 434.846, 646.139 433.088 L 648.500 431.177 648.500 346.500 L 648.500 261.823 646.139 259.912 C 643.968 258.154, 641.936 258, 620.889 258 C 599.333 258, 597.883 258.117, 596 260 C 594.900 261.100, 593.987 262.563, 593.971 263.250 C 593.956 263.938, 593.843 277.100, 593.721 292.500 L 593.500 320.500 572.250 320.670 L 551 320.840 551 291.875 L 551 262.909 548.545 260.455 L 546.091 258 523.045 258 C 501.333 258, 499.884 258.116, 498 260 M 666.039 260.189 C 664.020 262.355, 664 263.222, 664 346.689 C 664 429.667, 664.032 431.032, 666 433 C 667.957 434.957, 669.333 435, 730.015 435 L 792.029 435 794.011 431.750 C 795.762 428.878, 795.993 426.688, 795.996 412.899 C 795.998 404.319, 795.522 395.928, 794.938 394.252 C 793.268 389.461, 789.460 389, 751.557 389 L 718 389 718 378 L 718 367 744.311 367 C 769.147 367, 770.742 366.889, 772.747 365.021 C 775.592 362.370, 776.319 356.664, 775.827 340.853 C 775.261 322.676, 777.734 324, 744.354 324 L 717.930 324 718.215 313.750 L 718.500 303.500 754.336 303.373 C 781.203 303.278, 790.766 302.928, 792.547 301.975 C 795.701 300.287, 796.232 296.269, 795.826 277.159 C 795.513 262.434, 795.405 261.742, 793.139 259.909 C 790.873 258.077, 788.317 258, 729.428 258 L 668.078 258 666.039 260.189 M 808.098 260.125 C 806.002 262.375, 806 262.443, 806 346.650 L 806 430.922 808.189 432.961 C 810.258 434.889, 811.615 435, 833.078 435 C 853.933 435, 855.970 434.845, 858.139 433.090 C 860.497 431.181, 860.500 431.149, 860.824 404.590 L 861.147 378 881.324 378.015 C 892.421 378.024, 901.995 378.361, 902.600 378.765 C 905.560 380.741, 906 384.338, 906 406.530 C 906 426.144, 906.231 429.582, 907.716 432.096 L 909.431 435 933.041 435 C 956.616 435, 956.655 434.996, 958.888 432.620 L 961.124 430.239 960.780 396.870 C 960.467 366.476, 960.260 363.065, 958.468 358.625 C 955.055 350.171, 943.659 340.963, 934.746 339.457 L 930.874 338.803 934.888 335.851 C 937.413 333.994, 939.940 330.783, 941.697 327.199 C 944.390 321.706, 944.492 320.938, 944.496 306 C 944.500 291.779, 942.885 279, 941.084 279 C 940.757 279, 939.916 277.708, 939.218 276.130 C 937.442 272.118, 930.629 265.617, 925.670 263.201 C 916.091 258.534, 916.915 258.599, 862.348 258.227 L 810.197 257.872 808.098 260.125 M 972.103 260.120 C 970 262.377, 970 262.386, 970 346.650 L 970 430.922 972.189 432.961 C 974.330 434.956, 975.444 435, 1023.939 435 C 1076.523 435, 1082.452 434.578, 1094.845 429.952 C 1104.463 426.362, 1113.082 418.599, 1117.180 409.835 C 1121.893 399.756, 1122.150 396.045, 1121.814 343 L 1121.500 293.500 1118.834 286.854 C 1117.368 283.199, 1115.118 278.981, 1113.834 277.482 C 1106.376 268.769, 1103.075 266.287, 1095 263.322 C 1091.975 262.211, 1087.925 260.698, 1086 259.960 C 1083.274 258.914, 1070.525 258.534, 1028.353 258.240 L 974.206 257.863 972.103 260.120 M 1137.039 260.189 C 1135.020 262.355, 1135 263.222, 1135 346.689 C 1135 429.667, 1135.032 431.032, 1137 433 C 1138.956 434.956, 1140.333 435, 1200.066 435 C 1239.337 435, 1261.806 434.639, 1263.022 433.988 C 1265.933 432.430, 1266.525 427.910, 1266.203 409.707 L 1265.906 392.913 1262.703 390.960 C 1259.686 389.121, 1257.453 389.007, 1224.250 389.004 L 1189 389 1189 378 L 1189 367 1215.977 367 L 1242.954 367 1244.557 364.553 C 1246.945 360.909, 1246.721 328.579, 1244.292 326.147 C 1242.874 324.727, 1238.978 324.431, 1216.073 324 L 1189.500 323.500 1189.216 313.332 L 1188.932 303.164 1225.678 303.045 C 1258.024 302.941, 1262.637 302.733, 1264.212 301.308 C 1265.809 299.863, 1266 297.677, 1266 280.845 C 1266 263.333, 1265.858 261.858, 1264 260 C 1262.043 258.043, 1260.667 258, 1200.539 258 L 1139.078 258 1137.039 260.189 M 1279.500 259.368 C 1277.531 260.816, 1277.496 262.152, 1277.233 345.865 L 1276.967 430.891 1279.172 432.946 C 1281.266 434.896, 1282.554 435, 1304.703 435 L 1328.029 435 1330.011 431.750 C 1331.848 428.737, 1331.993 426.658, 1331.996 403.250 L 1332 378 1352.278 378 C 1372.056 378, 1372.604 378.055, 1374.528 380.250 C 1376.345 382.323, 1376.539 384.447, 1377 407.209 C 1377.470 430.433, 1377.620 432.008, 1379.500 433.427 C 1381.149 434.672, 1385.646 434.942, 1405.135 434.968 L 1428.770 435 1430.385 432.535 C 1431.784 430.400, 1431.998 425.953, 1431.988 399.285 C 1431.975 366.099, 1431.402 361.206, 1426.698 354.144 C 1421.702 346.643, 1414.151 341.252, 1406.250 339.544 C 1404.463 339.157, 1403 338.661, 1403 338.441 C 1403 338.221, 1404.992 336.205, 1407.426 333.961 C 1413.593 328.277, 1415.147 323.356, 1415.751 307.590 C 1416.498 288.133, 1413.071 276.929, 1403.744 268.332 C 1399.553 264.469, 1397.412 263.253, 1389 259.958 C 1383.564 257.830, 1282.335 257.284, 1279.500 259.368 M 1473 259.021 C 1462.039 260.934, 1453.193 265.436, 1446.686 272.411 C 1438.266 281.439, 1435.992 290.476, 1436.017 314.815 C 1436.029 325.605, 1436.553 333.948, 1437.502 338.428 C 1441.132 355.563, 1453.508 364.579, 1478 367.931 C 1482.675 368.571, 1489.200 369.502, 1492.500 369.999 C 1495.800 370.497, 1502.240 371.435, 1506.810 372.083 C 1511.381 372.732, 1515.768 373.911, 1516.560 374.703 C 1518.238 376.380, 1518.494 384.209, 1516.965 387.066 C 1515.972 388.920, 1514.476 389.002, 1480.715 389.056 C 1456.174 389.096, 1444.447 389.475, 1442.026 390.306 C 1436.439 392.226, 1435.927 394.307, 1436.231 413.840 C 1436.494 430.817, 1436.551 431.222, 1438.915 433.134 C 1441.249 435.022, 1442.960 435.078, 1489.915 434.779 C 1534.988 434.492, 1538.898 434.329, 1544 432.528 C 1560.151 426.829, 1570.598 415.198, 1573.059 400.175 C 1574.359 392.235, 1574.231 362.177, 1572.870 355.828 C 1570.303 343.861, 1565.066 336.885, 1554.868 331.850 C 1545.784 327.366, 1540.851 326.095, 1524.500 324.025 C 1519.550 323.398, 1513.062 322.461, 1510.083 321.943 C 1507.104 321.424, 1503.188 321, 1501.380 321 C 1496.038 321, 1493.106 319.108, 1491.982 314.935 C 1490.796 310.530, 1491.941 306.637, 1494.886 305.061 C 1496.159 304.380, 1507.901 303.995, 1527.684 303.986 C 1544.633 303.979, 1559.484 303.709, 1560.687 303.386 C 1564.147 302.458, 1565 297.911, 1565 280.398 C 1565 263.164, 1564.281 259.579, 1560.628 258.598 C 1557.416 257.736, 1478.170 258.118, 1473 259.021 M 861 317.377 L 861 334 871.935 334 C 877.949 334, 884.003 333.569, 885.387 333.043 C 889.338 331.541, 891 327.145, 891 318.199 C 891 309.089, 889.688 304.447, 886.645 302.790 C 885.465 302.148, 879.212 301.427, 872.750 301.188 L 861 300.753 861 317.377 M 1332 317.395 L 1332 334 1343.566 334 C 1349.927 334, 1355.997 333.537, 1357.055 332.970 C 1360.565 331.092, 1362 326.630, 1362 317.597 C 1362 303.089, 1360.485 301.726, 1343.750 301.176 L 1332 300.789 1332 317.395 M 1025.239 346.676 L 1025.500 389.351 1042.873 389.098 C 1052.429 388.959, 1061.286 388.371, 1062.556 387.793 C 1066.810 385.854, 1067.044 383.477, 1066.765 345.039 L 1066.500 308.579 1063.102 306.289 C 1059.885 304.122, 1058.780 304, 1042.341 304 L 1024.979 304 1025.239 346.676 M 171 331 C 168.282 333.718, 168.394 338.462, 171.223 340.443 C 174.129 342.479, 176.273 342.409, 179.014 340.190 C 183.349 336.679, 180.518 329, 174.889 329 C 173.850 329, 172.100 329.900, 171 331" stroke="none" fill="#1D3A5B" fill-rule="evenodd"/>
</svg>